PathFileType	4	(X/Y/Z)	21_1_53_p1_0-556.trc
DataRate	CameraRate	NumFrames	NumMarkers	Units	OrigDataRate	OrigDataStartFrame	OrigNumFrames
56.0	56.0	6	27	m	56.0	278	557
Frame#	Time	RHip			RKnee			RAnkle			RBigToe			RSmallToe			RHeel			LHip			LKnee			LAnkle			LBigToe			LSmallToe			LHeel			Neck			Head			Nose			RShoulder			RElbow			RWrist			RThumb			RIndex			RPinky			LShoulder			LElbow			LWrist			LThumb			LIndex			LPinky			
		X1	Y1	Z1	X2	Y2	Z2	X3	Y3	Z3	X4	Y4	Z4	X5	Y5	Z5	X6	Y6	Z6	X7	Y7	Z7	X8	Y8	Z8	X9	Y9	Z9	X10	Y10	Z10	X11	Y11	Z11	X12	Y12	Z12	X13	Y13	Z13	X14	Y14	Z14	X15	Y15	Z15	X16	Y16	Z16	X17	Y17	Z17	X18	Y18	Z18	X19	Y19	Z19	X20	Y20	Z20	X21	Y21	Z21	X22	Y22	Z22	X23	Y23	Z23	X24	Y24	Z24	X25	Y25	Z25	X26	Y26	Z26	X27	Y27	Z27	
278	4.964285714285714	0.30354607403938555	0.5491462706352318	1.1317074678667938	0.29888295049517727	0.5680695545696206	1.539295948006062	0.3021865857506935	0.6047593189818751	1.941985832813956	0.29020002242406534	0.4587095295582827	1.9865975620377536	0.35277383569097226	0.4933230517704075	1.9949683884249616	0.2725952842996998	0.6897935287716885	2.020562670982434	0.09286265461800992	0.5461010466121716	1.12650919743304	0.08452442487933251	0.5804434508949254	1.5301343424993736	0.07555327780510429	0.6205263389321343	1.9616789157281358	0.08100442972787597	0.4907372220423649	2.0047839025418948	0.03674642857382814	0.5107214533260117	2.0050655038528706	0.08864223167674024	0.6451644994009902	2.004969926879911	0.2218728678525397	0.35780926803451946	0.5672194811623463	0.2310318586487788	0.2846247863137711	0.3332479827118916	0.22908438065140319	0.2248039550531206	0.46044486602403806	0.3805965555675521	0.37739085933560274	0.6290758170919524	0.5775190915648915	0.2819591393393018	0.7030060673947421	0.7332896200557643	0.13975633470067078	0.7029692144483868	0.8200574336389818	0.04556338597540967	0.7010820002940805	0.8330270988329975	0.03486596910279552	0.7030392959134086	0.7948136775131512	0.015526792211710636	0.7097966192745229	0.06283531489190375	0.39856459579058207	0.6183671654040958	-0.12710852081606444	0.2787271442535574	0.6652257025013213	-0.30069527459174444	0.1230825025437717	0.6614089818688875	-0.3404729138805845	0.053138898077732644	0.6496131256796539	-0.37637196369179216	0.07135219293238221	0.6338676295587466	-0.3885748978420996	0.07310529423761572	0.6249854966864695
279	4.982142857142857	0.29619109005734096	0.5348886048511001	1.1282086397016629	0.2953559456135794	0.5557841651687361	1.5343673047718243	0.3025752219503498	0.6027995103832633	1.9453945063728348	0.29000435201554686	0.45703452936275	1.985792591140004	0.3528272994988207	0.49328144446843797	1.9952985509563819	0.27377811688056086	0.6888315153970194	2.014839742962277	0.0921897755253167	0.5464225903178018	1.1303524580630315	0.08448818353450332	0.5807682508600605	1.5303913869268104	0.07551946424568655	0.6204910710307087	1.961652909575184	0.08125607110210234	0.49068135317293776	2.0049852046282224	0.03688478929593427	0.5104859950779059	2.005328819359653	0.08850213837301853	0.6447944446142073	2.004983240781808	0.22186193628250586	0.35784019150802776	0.5673170741952611	0.23105691003345924	0.28458645582475073	0.33326628555249016	0.22907352283444593	0.22466323848625197	0.4604855987556524	0.3804091465700946	0.3770177821008078	0.6291229870977325	0.5774088553717035	0.28186998001821106	0.7029664077898955	0.7381745867097078	0.1486671124161514	0.7108168001410874	0.82082339955419	0.04996841140637708	0.7134494025162053	0.8249046989190848	0.05123335685730454	0.715510653948244	0.7891607407240394	0.09565043763519572	0.7301196828826539	0.06258605862648488	0.398752231450554	0.6216171921722801	-0.13193081714740074	0.30134920645084257	0.6712928597145355	-0.30637596409600537	0.1313893627009621	0.6661190722959641	-0.3571595500064115	0.09894676122624889	0.6559668524915095	-0.3823937561235934	0.08982836419551789	0.6368273446288362	-0.39105601070836793	0.08348048930596591	0.6287568535232039
280	5.0	0.2961373280208673	0.5349499916415396	1.1283172406575803	0.29873751957298145	0.5685708968829916	1.539659580559174	0.307864373235972	0.6069419562922382	1.9519587247512635	0.2898209471889072	0.45503736252225585	1.9846230914250227	0.35697301574586215	0.4773374353764926	1.9858039489747243	0.27388481150796723	0.6887952788784795	2.0149951473228214	0.09251946911684225	0.5480862933149956	1.1353404971882488	0.0844999630746832	0.5805798889444755	1.5303886470200685	0.08149986964310084	0.6055905125724651	1.9534261776236488	0.08113068663989914	0.4905556138642502	2.0048057735963645	0.036873824128096824	0.5105531940749988	2.00533508029963	0.08409351643882607	0.6415229970829643	2.003526381625277	0.2218495513282091	0.35768437066575387	0.5672711085488358	0.23104527651975046	0.28453867530769267	0.333271607872059	0.22895447930491103	0.22451293713407064	0.4604729745707287	0.38042614637749855	0.37679132514310987	0.6291705911694488	0.5809063034257789	0.2916307229969876	0.7082829277601539	0.740287356990942	0.1690591045058993	0.7174064187371154	0.8387690501131004	0.08811533409398935	0.7144237867835666	0.8437899478498578	0.061676753605738904	0.7169212115670843	0.8038713442205738	0.1009982033838547	0.731544221276761	0.06771837511545502	0.3872662605808966	0.6201604047642522	-0.14345549838956365	0.32389581009110485	0.6822498780068526	-0.3066737206581038	0.1418074365331505	0.6708620756424722	-0.36953503807585547	0.11690664696621815	0.6618826367030443	-0.38820191026276285	0.09860802688192734	0.6379748458687368	-0.4006760848605595	0.09189684144633277	0.6317742565179082
281	5.017857142857143	0.295476360701368	0.5350881466247888	1.1324991997383123	0.29856677964329575	0.5682145083497399	1.539430708143539	0.3071424438084045	0.618124907024246	1.9581619890030753	0.2902140739853457	0.45493129790694625	1.9846311378375556	0.34879547309306574	0.4620788758865769	1.9771558324117757	0.2739627179392435	0.6889709900984149	2.0150498141182274	0.0926332298581606	0.5480603094254163	1.1352893453641058	0.08492390391951393	0.5790665635881774	1.5339968196822713	0.07610063365812265	0.622860883985676	1.9681038540401465	0.0808618436486831	0.49021534430543995	2.0043711383954257	0.03673885417464357	0.5104988928161388	2.0050251865419284	0.08406948458671572	0.6422419282888049	2.003823881425022	0.22206698341015027	0.3589135801461259	0.5708273371082562	0.23525416947431071	0.27389991802826985	0.33305349600440604	0.2288833008775326	0.2242825673289553	0.4605004457130716	0.3771892957630391	0.3659724910136164	0.6311007330600408	0.5848012923648865	0.30083730442274864	0.7172935810759602	0.7422942274443718	0.19030020350299562	0.7210578015511716	0.8338186062457539	0.08555649873900056	0.7173531056949288	0.836635797769926	0.05456457190202208	0.7163862853698391	0.8026250592774558	0.11270299874327212	0.7377790699152305	0.0677234002855916	0.38727326184578076	0.620221396520027	-0.14260542922598077	0.33540218873718197	0.6868865690929208	-0.31258550418651637	0.15142905496061565	0.6726248084343235	-0.374619945826342	0.1361450360914174	0.667711502569794	-0.3885580631085932	0.09947043151566506	0.638341113630609	-0.4073431599639379	0.11121614564104099	0.636625495590014
282	5.035714285714286	0.2953957524196203	0.5349813913851987	1.1324224252164392	0.2984308721592007	0.5678000646188318	1.5392786282797846	0.3104683565955759	0.6184220077203176	1.9534113198049525	0.2902609823504918	0.457171411296493	1.985883593037631	0.3445622786161549	0.47809975039334524	1.9867613263258304	0.2727975396895039	0.689520194048612	2.0208659711623764	0.09250203083422454	0.5479459058319843	1.135224519627652	0.08437940402989494	0.5805924365821685	1.5303931366338726	0.07542798985036936	0.6205062491842737	1.9616544396800495	0.08092286207222145	0.4903873448135281	2.004491738588523	0.036715095714962516	0.5106713911376342	2.0051229074483614	0.08405308924449302	0.6419859281132225	2.0036599856665656	0.21925782001585517	0.34764537818687685	0.5664515365776589	0.2353186835821413	0.2738157037069675	0.3330823348792216	0.22887676439325524	0.2241721069466545	0.4605343708779335	0.3801363555336304	0.37632701727735657	0.6323884809669184	0.588974546492876	0.311866325336047	0.7223773753636781	0.7461287423079466	0.19955159123390376	0.7259396446994522	0.8477555192707691	0.12210504287455085	0.728111769387826	0.845114807178771	0.10121115873413021	0.7275086380510067	0.8048471942796193	0.13375890198208482	0.7458460636263888	0.06773803201023947	0.38718028218431627	0.6201996215579494	-0.14262121763595884	0.3370547042277783	0.6910127047524386	-0.31411215103042034	0.18512076985226364	0.6811588397388237	-0.3622311963260309	0.1678434940119308	0.6814104474509876	-0.385774152257014	0.11212686702464504	0.6425252025283086	-0.40831013537682354	0.12414428402815283	0.6424135958855314
283	5.053571428571429	0.29539190557646416	0.5351037901867479	1.1325391312516488	0.29585084735783834	0.5581992569617422	1.5397518477815089	0.3061204171213049	0.6162836659489525	1.952581747107463	0.28616977182709713	0.4727107321972678	1.9954730327327135	0.34720804017598095	0.49003445861462147	1.993546727996107	0.2784900980672123	0.6926169933014991	2.016598250390926	0.09250060700737575	0.5480846686315503	1.1352775660245107	0.08464680429217339	0.5824171385256354	1.5358885717757997	0.08150215291080658	0.6055545371378651	1.9531168999460915	0.08088675139938953	0.4907934460784547	2.004804154942365	0.03676207905276273	0.5106610438486807	2.005263646204114	0.088619799088195	0.6445757034982158	2.00467005450148	0.22212478491081986	0.3588525344515344	0.5708364332945586	0.23532189290002084	0.27378191772072014	0.3330558257523875	0.22887216390111348	0.22398734811431237	0.4605511627012618	0.38039711459383946	0.3765886721770834	0.6323586043529349	0.5891444168045358	0.31221686257540243	0.7225211613835288	0.7503477938179831	0.2101101344302682	0.7341378118125895	0.8448905888693972	0.160197650139873	0.7391611757363031	0.8405917614616664	0.152318700958734	0.7375063568909247	0.8073399113733204	0.1543264371838258	0.7526668475027337	0.06769540426019022	0.3873231061056893	0.6202365724238407	-0.1413624334248786	0.3480958301092221	0.6967352309105492	-0.30299812109484486	0.199370921076563	0.6861888471592472	-0.36092676322419087	0.17811941860590425	0.6863442199702401	-0.3854247891004697	0.1223988384274908	0.6477589646121095	-0.39562490691542984	0.1406550825639632	0.6477369865179602
